#N canvas 0 0 1280 749 10;
#X declare -path ../;
#X declare -lib beaglebone;
#X obj 11 34 ../license;
#X obj 12 83 declare -path ../;
#X obj 15 142 pack f f f;
#X obj 15 169 print midi;
#X obj 15 115 midi_notein;
#X obj 12 59 declare -lib beaglebone;
#X obj 14 254 print P8_07;
#X obj 14 233 gpio_input P8_07;
#X obj 333 26 loadbang;
#X obj 333 69 tgl 15 0 empty empty empty 17 7 0 10 -262144 -1 -1 1
1;
#X obj 333 113 display_7_led;
#X msg 333 88 on \$1;
#X obj 433 49 metro 1000;
#X obj 333 49 metro 400;
#N canvas 275 187 218 363 count 0;
#X obj 72 23 inlet;
#X obj 74 201 outlet;
#X obj 114 78 + 1;
#X obj 5 137 select 1;
#X obj 53 78 i 0;
#X msg 6 165 0;
#X obj 5 110 == 99;
#X connect 0 0 4 0;
#X connect 2 0 4 1;
#X connect 3 0 5 0;
#X connect 4 0 2 0;
#X connect 4 0 1 0;
#X connect 4 0 6 0;
#X connect 5 0 4 1;
#X connect 6 0 3 0;
#X restore 433 70 pd count;
#X msg 433 92 number \$1;
#X obj 200 663 dac~;
#X obj 199 613 osc~ 880;
#X obj 200 636 *~ 0.2;
#X obj 193 31 loadbang;
#X msg 193 75 \; pd dsp 1;
#X obj 193 53 delay 2000;
#X obj 13 286 gpio_input P8_08;
#X obj 13 307 print P8_08;
#X obj 13 342 gpio_input P8_09;
#X obj 13 363 print P8_09;
#X obj 13 425 gpio_input P9_16;
#X obj 13 447 print P9_16;
#X obj 12 478 gpio_input P9_27;
#X obj 12 501 print P9_27;
#X obj 12 534 gpio_input P9_26;
#X obj 12 555 print P9_26;
#X obj 12 591 gpio_input P9_41A;
#X obj 12 612 print P9_41A;
#X obj 13 641 gpio_input P8_45;
#X obj 13 662 print P8_45;
#X obj 189 230 adc_input 2;
#X obj 287 229 adc_input 3;
#X obj 379 227 adc_input 4;
#X obj 188 262 print adc2;
#X obj 286 261 print adc3;
#X obj 378 259 print adc4;
#X obj 187 306 adc_input 0;
#X obj 186 338 print adc0;
#X obj 285 305 adc_input 1;
#X obj 284 337 print adc1;
#X obj 184 421 adc_input 10;
#X obj 282 420 adc_input 8;
#X obj 374 418 adc_input 11;
#X obj 182 497 adc_input 9;
#X obj 280 496 adc_input 7;
#X obj 375 493 adc_input 6;
#X obj 183 453 print adc10;
#X obj 281 452 print adc8;
#X obj 373 450 print adc11;
#X obj 181 529 print adc9;
#X obj 279 528 print adc7;
#X obj 374 525 print adc6;
#X obj 612 73 gpio_input P8_44;
#X obj 612 96 print p8_44;
#X obj 613 120 gpio_input P8_41;
#X obj 613 143 print p8_41;
#X obj 614 166 gpio_input P8_42;
#X obj 614 212 gpio_input P8_39;
#X obj 614 268 gpio_input P8_40;
#X obj 614 189 print p8_42;
#X obj 614 235 print p8_39;
#X obj 614 297 print p8_40;
#X obj 614 326 gpio_input P8_37;
#X obj 614 355 print p8_37;
#X obj 614 384 gpio_input P8_38;
#X obj 614 413 print p8_38;
#X obj 729 71 gpio_input P8_35;
#X obj 729 100 print p8_35;
#X obj 729 129 gpio_input P8_36;
#X obj 729 158 print p8_36;
#X obj 729 186 gpio_input P8_33;
#X obj 729 215 print p8_33;
#X obj 729 246 gpio_input P8_34;
#X obj 729 275 print p8_34;
#X obj 729 307 gpio_input P8_31;
#X obj 729 335 print p8_31;
#X obj 950 68 gpio_input P8_18;
#X obj 950 97 print p8_18;
#X obj 950 127 gpio_input P8_43;
#X obj 950 156 print p8_43;
#X obj 950 186 gpio_input P8_46;
#X obj 949 215 print p8_46;
#X obj 944 420 tgl 15 0 empty empty empty 17 7 0 10 -262144 -1 -1 0
1;
#X obj 931 266 loadbang;
#X obj 944 438 gpio_output P9_12;
#X obj 944 362 tgl 15 0 empty empty empty 17 7 0 10 -262144 -1 -1 0
1;
#X obj 945 380 gpio_output P9_14;
#X obj 931 302 tgl 15 0 empty empty empty 17 7 0 10 -262144 -1 -1 0
1;
#X obj 944 401 metro 900;
#X obj 944 343 metro 800;
#X obj 931 283 metro 700;
#X obj 944 592 tgl 15 0 empty empty empty 17 7 0 10 -262144 -1 -1 0
1;
#X obj 944 534 tgl 15 0 empty empty empty 17 7 0 10 -262144 -1 -1 0
1;
#X obj 944 477 tgl 15 0 empty empty empty 17 7 0 10 -262144 -1 -1 0
1;
#X obj 944 573 metro 900;
#X obj 944 515 metro 800;
#X obj 944 458 metro 700;
#X obj 944 495 gpio_output P9_21;
#X obj 944 552 gpio_output P9_24;
#X obj 944 610 gpio_output P9_22;
#X obj 944 649 tgl 15 0 empty empty empty 17 7 0 10 -262144 -1 -1 0
1;
#X obj 944 630 metro 900;
#X obj 944 667 gpio_output P9_23;
#X obj 945 321 gpio_output P9_15;
#X connect 2 0 3 0;
#X connect 4 0 2 0;
#X connect 4 1 2 1;
#X connect 4 2 2 2;
#X connect 7 0 6 0;
#X connect 8 0 12 0;
#X connect 8 0 13 0;
#X connect 9 0 11 0;
#X connect 11 0 10 0;
#X connect 12 0 14 0;
#X connect 13 0 9 0;
#X connect 14 0 15 0;
#X connect 15 0 10 0;
#X connect 17 0 18 0;
#X connect 18 0 16 0;
#X connect 18 0 16 1;
#X connect 19 0 21 0;
#X connect 21 0 20 0;
#X connect 22 0 23 0;
#X connect 24 0 25 0;
#X connect 26 0 27 0;
#X connect 28 0 29 0;
#X connect 30 0 31 0;
#X connect 32 0 33 0;
#X connect 34 0 35 0;
#X connect 36 0 39 0;
#X connect 37 0 40 0;
#X connect 38 0 41 0;
#X connect 42 0 43 0;
#X connect 44 0 45 0;
#X connect 46 0 52 0;
#X connect 47 0 53 0;
#X connect 48 0 54 0;
#X connect 49 0 55 0;
#X connect 50 0 56 0;
#X connect 51 0 57 0;
#X connect 58 0 59 0;
#X connect 60 0 61 0;
#X connect 62 0 65 0;
#X connect 63 0 66 0;
#X connect 64 0 67 0;
#X connect 68 0 69 0;
#X connect 70 0 71 0;
#X connect 72 0 73 0;
#X connect 74 0 75 0;
#X connect 76 0 77 0;
#X connect 78 0 79 0;
#X connect 80 0 81 0;
#X connect 82 0 83 0;
#X connect 84 0 85 0;
#X connect 86 0 87 0;
#X connect 88 0 90 0;
#X connect 89 0 94 0;
#X connect 89 0 95 0;
#X connect 89 0 96 0;
#X connect 89 0 102 0;
#X connect 89 0 101 0;
#X connect 89 0 100 0;
#X connect 89 0 107 0;
#X connect 91 0 92 0;
#X connect 94 0 88 0;
#X connect 95 0 91 0;
#X connect 96 0 93 0;
#X connect 97 0 105 0;
#X connect 98 0 104 0;
#X connect 99 0 103 0;
#X connect 100 0 97 0;
#X connect 101 0 98 0;
#X connect 102 0 99 0;
#X connect 106 0 108 0;
#X connect 107 0 106 0;
