#N canvas 134 203 257 184 10;
#X obj 145 200 simple_synth;
#X obj 145 252 dac~;
#X obj 214 163 hsl 128 15 0 1 0 0 empty empty Frequency 1 -6 0 10 -262144
-1 -1 0 1;
#X obj 145 162 tgl 29 0 empty empty Note\ on 1 -6 0 10 -262144 -1 -1
0 1;
#X floatatom 223 181 8 0 0 0 - - -, f 8;
#X obj 107 102 ../license;
#X connect 0 0 1 0;
#X connect 0 0 1 1;
#X connect 2 0 0 1;
#X connect 2 0 4 0;
#X connect 3 0 0 0;
