#N canvas 401 203 398 306 10;
#X obj 330 85 delay 200;
#X obj 165 63 inlet frequency;
#X obj 11 62 inlet note-on;
#X obj 330 60 loadbang;
#X obj 150 304 outlet~;
#X obj 165 234 osc~;
#X obj 150 269 *~;
#X obj 55 218 line~;
#X obj 11 92 sel 0 1;
#X msg 11 127 0 10;
#X msg 54 128 1 1, f 4;
#X obj 165 149 pow 3;
#X obj 165 175 * 600;
#X msg 177 109 0;
#X obj 165 202 + 440;
#X obj 11 34 ../license;
#X connect 0 0 13 0;
#X connect 1 0 11 0;
#X connect 2 0 8 0;
#X connect 3 0 0 0;
#X connect 5 0 6 1;
#X connect 6 0 4 0;
#X connect 7 0 6 0;
#X connect 8 0 9 0;
#X connect 8 1 10 0;
#X connect 9 0 7 0;
#X connect 10 0 7 0;
#X connect 11 0 12 0;
#X connect 12 0 14 0;
#X connect 13 0 11 0;
#X connect 13 0 7 0;
#X connect 14 0 5 0;
