#N canvas 134 203 257 184 10;
#N canvas 489 236 400 314 license 0;
#X text 15 3 Copyright (c);
#X text 15 210 See the GNU General Public License for more details.
;
#X text 17 236 You should have received a copy of the GNU General Public
License along with the Outer Space Sounds Pd Library. If not \, see
<http://www.gnu.org/licenses/>.;
#X text 15 18 2014 Rafael Vega González <rvega@elsoftwarehamuerto.org>
;
#X text 14 45 This file is part of the Pd-BeagleBoneBlack-Io Library.
;
#X text 13 69 The Pd-BeagleBoneBlack-Io Library is free software: you
can redistribute it and/or modify it under the terms of the GNU General
Public License as published by the Free Software Foundation \, either
version 3 of the License \, or (at your option) any later version.
;
#X text 14 145 The Pd-BeagleBoneBlack-Io Library is distributed in
the hope that it will be useful \, but WITHOUT ANY WARRANTY \; without
even the implied warranty of MERCHANTABILITY or FITNESS FOR A PARTICULAR
PURPOSE.;
#X restore 120 109 pd license;
#X obj 145 200 simple_synth;
#X obj 145 252 dac~;
#X obj 214 163 hsl 128 15 0 1 0 0 empty empty Frequency 1 -6 0 10 -262144
-1 -1 0 1;
#X obj 145 162 tgl 29 0 empty empty Note\ on 1 -6 0 10 -262144 -1 -1
0 1;
#X floatatom 223 181 8 0 0 0 - - -, f 8;
#X connect 1 0 2 0;
#X connect 1 0 2 1;
#X connect 3 0 1 1;
#X connect 3 0 5 0;
#X connect 4 0 1 0;
