#N canvas 151 158 616 438 10;
#X declare -lib ../beaglebone;
#X obj 14 71 gpio_input P9_11;
#X obj 6 6 declare -lib ../beaglebone;
#X obj 14 403 gpio_output P9_13;
#X obj 71 320 simple_synth;
#X obj 73 370 dac~;
#X obj 14 376 == 0;
#X msg 536 68 \; pd dsp 1;
#X obj 536 12 loadbang;
#X obj 536 37 delay 200;
#X text 14 52 Note On Button;
#X text 126 402 Note On LED;
#X text 139 52 Frequency Potentiometer;
#X obj 523 401 ../license;
#X obj 311 103 select 0 1 2 3 4 5 6 7;
#X msg 407 144 71;
#X msg 391 164 69;
#X msg 375 182 67;
#X msg 359 203 65;
#X msg 343 221 64;
#X msg 327 243 62;
#X msg 311 265 60;
#X msg 423 124 72;
#X text 419 202 C major scale;
#X obj 395 297 mtof;
#X text 310 52 Frequency Potentiometer with ranges;
#X obj 140 70 adc_input 1;
#X obj 311 74 adc_input 0 ranges 8;
#X text 423 297 <- Connect to right inlet of synth.;
#X connect 0 0 3 0;
#X connect 0 0 5 0;
#X connect 3 0 4 0;
#X connect 3 0 4 1;
#X connect 5 0 2 0;
#X connect 7 0 8 0;
#X connect 8 0 6 0;
#X connect 13 0 20 0;
#X connect 13 1 19 0;
#X connect 13 2 18 0;
#X connect 13 3 17 0;
#X connect 13 4 16 0;
#X connect 13 5 15 0;
#X connect 13 6 14 0;
#X connect 13 7 21 0;
#X connect 14 0 23 0;
#X connect 15 0 23 0;
#X connect 16 0 23 0;
#X connect 17 0 23 0;
#X connect 18 0 23 0;
#X connect 19 0 23 0;
#X connect 20 0 23 0;
#X connect 21 0 23 0;
#X connect 25 0 3 1;
#X connect 26 0 13 0;
