#N canvas 172 220 396 244 10;
#X declare -lib ../beaglebone;
#X obj 14 71 gpio_input P9_11;
#X obj 140 70 adc_input 0;
#X obj 6 6 declare -lib ../beaglebone;
#X obj 14 213 gpio_output P9_13;
#X obj 71 130 simple_synth;
#X obj 73 180 dac~;
#X obj 14 186 == 0;
#X msg 314 87 \; pd dsp 1;
#X obj 314 31 loadbang;
#X obj 314 56 delay 200;
#X text 14 52 Note On Button;
#X text 126 212 Note On LED;
#X text 139 52 Frequency Potentiometer;
#X obj 306 213 ../license;
#X connect 0 0 4 0;
#X connect 0 0 6 0;
#X connect 1 0 4 1;
#X connect 4 0 5 0;
#X connect 4 0 5 1;
#X connect 6 0 3 0;
#X connect 8 0 9 0;
#X connect 9 0 7 0;
