#N canvas 2 50 1278 749 10;
#X declare -lib ../beaglebone;
#N canvas 489 236 400 314 license 0;
#X text 15 3 Copyright (c);
#X text 15 210 See the GNU General Public License for more details.
;
#X text 17 236 You should have received a copy of the GNU General Public
License along with the Outer Space Sounds Pd Library. If not \, see
<http://www.gnu.org/licenses/>.;
#X text 15 18 2014 Rafael Vega González <rvega@elsoftwarehamuerto.org>
;
#X text 14 45 This file is part of the Pd-BeagleBoneBlack-Io Library.
;
#X text 13 69 The Pd-BeagleBoneBlack-Io Library is free software: you
can redistribute it and/or modify it under the terms of the GNU General
Public License as published by the Free Software Foundation \, either
version 3 of the License \, or (at your option) any later version.
;
#X text 14 145 The Pd-BeagleBoneBlack-Io Library is distributed in
the hope that it will be useful \, but WITHOUT ANY WARRANTY \; without
even the implied warranty of MERCHANTABILITY or FITNESS FOR A PARTICULAR
PURPOSE.;
#X restore 41 446 pd license;
#X obj 39 87 print P8_07;
#X obj 39 58 gpio_input P8_07;
#X obj 149 87 print P8_08;
#X obj 149 58 gpio_input P8_08;
#X obj 259 87 print P8_09;
#X obj 259 58 gpio_input P8_09;
#X obj 369 87 print P8_10;
#X obj 369 58 gpio_input P8_10;
#X obj 479 87 print P8_11;
#X obj 479 58 gpio_input P8_11;
#X obj 589 87 print P8_12;
#X obj 589 58 gpio_input P8_12;
#X obj 709 87 print P8_13;
#X obj 709 58 gpio_input P8_13;
#X obj 41 172 print P8_14;
#X obj 41 143 gpio_input P8_14;
#X obj 151 172 print P8_15;
#X obj 151 143 gpio_input P8_15;
#X obj 261 172 print P8_16;
#X obj 261 143 gpio_input P8_16;
#X obj 371 172 print P8_17;
#X obj 371 143 gpio_input P8_17;
#X obj 481 172 print P8_18;
#X obj 481 143 gpio_input P8_18;
#X obj 591 172 print P8_19;
#X obj 591 143 gpio_input P8_19;
#X obj 711 172 print P8_26;
#X obj 711 143 gpio_input P8_26;
#X obj 831 172 print P8_27;
#X obj 831 143 gpio_input P8_27;
#X obj 941 172 print P8_28;
#X obj 941 143 gpio_input P8_28;
#X obj 1051 172 print P8_29;
#X obj 1051 143 gpio_input P8_29;
#X obj 1161 172 print P8_30;
#X obj 1161 143 gpio_input P8_30;
#X obj 41 259 print P8_31;
#X obj 41 230 gpio_input P8_31;
#X obj 151 259 print P8_32;
#X obj 151 230 gpio_input P8_32;
#X obj 261 259 print P8_33;
#X obj 371 257 print P8_34;
#X obj 371 228 gpio_input P8_34;
#X obj 481 257 print P8_35;
#X obj 481 228 gpio_input P8_35;
#X obj 591 257 print P8_36;
#X obj 591 228 gpio_input P8_36;
#X obj 711 257 print P8_37;
#X obj 711 228 gpio_input P8_37;
#X obj 831 257 print P8_38;
#X obj 831 228 gpio_input P8_38;
#X obj 941 257 print P8_39;
#X obj 941 228 gpio_input P8_39;
#X obj 1051 257 print P8_40;
#X obj 1051 228 gpio_input P8_40;
#X obj 1161 257 print P8_41;
#X obj 1161 228 gpio_input P8_41;
#X obj 41 327 print P8_42;
#X obj 41 298 gpio_input P8_42;
#X obj 151 327 print P8_43;
#X obj 151 298 gpio_input P8_43;
#X obj 262 327 print P8_44;
#X obj 262 298 gpio_input P8_44;
#X obj 372 327 print P8_45;
#X obj 372 298 gpio_input P8_45;
#X obj 482 327 print P8_46;
#X obj 482 298 gpio_input P8_46;
#X obj 592 327 print P9_11;
#X obj 592 298 gpio_input P9_11;
#X obj 712 327 print P9_12;
#X obj 712 298 gpio_input P9_12;
#X obj 832 327 print P9_13;
#X obj 832 298 gpio_input P9_13;
#X obj 942 327 print P9_14;
#X obj 942 298 gpio_input P9_14;
#X obj 1052 327 print P9_15;
#X obj 1052 298 gpio_input P9_15;
#X obj 1162 327 print P9_16;
#X obj 1162 298 gpio_input P9_16;
#X obj 41 401 print P9_17;
#X obj 41 372 gpio_input P9_17;
#X obj 152 401 print P9_18;
#X obj 152 372 gpio_input P9_18;
#X obj 371 401 print P9_22;
#X obj 371 372 gpio_input P9_22;
#X obj 481 401 print P9_23;
#X obj 481 372 gpio_input P9_23;
#X obj 591 401 print P9_24;
#X obj 591 372 gpio_input P9_24;
#X obj 701 401 print P9_26;
#X obj 701 372 gpio_input P9_26;
#X obj 831 396 print P9_41A;
#X obj 260 229 gpio_input P8_33;
#X obj 262 372 gpio_input P9_21;
#X obj 262 401 print P9_21;
#X obj 830 373 gpio_input P9_41A;
#X obj 41 16 declare -lib ../beaglebone;
#X connect 2 0 1 0;
#X connect 4 0 3 0;
#X connect 6 0 5 0;
#X connect 8 0 7 0;
#X connect 10 0 9 0;
#X connect 12 0 11 0;
#X connect 14 0 13 0;
#X connect 16 0 15 0;
#X connect 18 0 17 0;
#X connect 20 0 19 0;
#X connect 22 0 21 0;
#X connect 24 0 23 0;
#X connect 26 0 25 0;
#X connect 28 0 27 0;
#X connect 30 0 29 0;
#X connect 32 0 31 0;
#X connect 34 0 33 0;
#X connect 36 0 35 0;
#X connect 38 0 37 0;
#X connect 40 0 39 0;
#X connect 43 0 42 0;
#X connect 45 0 44 0;
#X connect 47 0 46 0;
#X connect 49 0 48 0;
#X connect 51 0 50 0;
#X connect 53 0 52 0;
#X connect 55 0 54 0;
#X connect 57 0 56 0;
#X connect 59 0 58 0;
#X connect 61 0 60 0;
#X connect 63 0 62 0;
#X connect 65 0 64 0;
#X connect 67 0 66 0;
#X connect 69 0 68 0;
#X connect 71 0 70 0;
#X connect 73 0 72 0;
#X connect 75 0 74 0;
#X connect 77 0 76 0;
#X connect 79 0 78 0;
#X connect 81 0 80 0;
#X connect 83 0 82 0;
#X connect 85 0 84 0;
#X connect 87 0 86 0;
#X connect 89 0 88 0;
#X connect 91 0 90 0;
#X connect 93 0 41 0;
#X connect 94 0 95 0;
#X connect 96 0 92 0;
