#N canvas 85 42 957 322 10;
#X declare -lib beaglebone;
#X obj 16 15 import beaglebone;
#N canvas 0 0 450 300 (subpatch) 0;
#X array array1 128 float 2 black black;
#X coords 0 0 127 255 200 140 1;
#X restore 21 148 graph;
#N canvas 68 221 450 300 (subpatch) 0;
#X array array2 128 float 2 black black;
#X coords 0 0 127 255 200 140 1;
#X restore 273 148 graph;
#X obj 16 113 tabsend~ array1;
#X obj 275 120 tabsend~ array2;
#X obj 855 94 loadbang;
#X obj 855 122 delay 200;
#X msg 855 150 \; pd dsp 1;
#X obj 856 69 block~ 128 1 1;
#X obj 22 301 license;
#X obj 275 77 adc_input~ 1;
#X text 491 66 Creation parameters are \; channel: Must be the first
parameter. Which adc channel \; <line>: Output should change gradually
as in [line~] \; <bits n>: Resolution in bits of the output. Default
is 7;
#X obj 122 114 print~;
#X obj 177 92 metro 1000;
#X obj 177 68 loadbang;
#X obj 16 69 adc_input~ 0 line bits 8;
#X connect 5 0 6 0;
#X connect 6 0 7 0;
#X connect 10 0 4 0;
#X connect 13 0 12 0;
#X connect 14 0 13 0;
#X connect 15 0 3 0;
#X connect 15 0 12 0;
