#N canvas 541 124 229 364 10;
#X declare -lib beaglebone;
#X obj 21 68 loadbang;
#X obj 21 124 tgl 15 0 empty empty empty 17 7 0 10 -262144 -1 -1 1
1;
#X obj 20 346 license;
#X obj 21 313 display_7_led;
#X msg 21 151 on \$1;
#X obj 121 97 metro 1000;
#X obj 21 97 metro 400;
#X obj 16 15 declare -lib beaglebone;
#N canvas 275 187 218 363 count 1;
#X obj 72 23 inlet;
#X obj 74 201 outlet;
#X obj 114 78 + 1;
#X obj 5 137 select 1;
#X obj 53 78 i 0;
#X msg 6 165 0;
#X obj 5 110 == 99;
#X connect 0 0 4 0;
#X connect 2 0 4 1;
#X connect 3 0 5 0;
#X connect 4 0 2 0;
#X connect 4 0 1 0;
#X connect 4 0 6 0;
#X connect 5 0 4 1;
#X connect 6 0 3 0;
#X restore 121 133 pd count;
#X msg 121 166 number \$1;
#X connect 0 0 5 0;
#X connect 0 0 6 0;
#X connect 1 0 4 0;
#X connect 4 0 3 0;
#X connect 5 0 8 0;
#X connect 6 0 1 0;
#X connect 8 0 9 0;
#X connect 9 0 3 0;
